<svg xmlns="http://www.w3.org/2000/svg" viewBox="0 0 700 320" font-family="system-ui, -apple-system, sans-serif" font-size="13">
  <defs>
    <marker id="arr" markerWidth="10" markerHeight="7" refX="10" refY="3.5" orient="auto">
      <polygon points="0 0, 10 3.5, 0 7" fill="#555"/>
    </marker>
    <marker id="arr-g" markerWidth="10" markerHeight="7" refX="10" refY="3.5" orient="auto">
      <polygon points="0 0, 10 3.5, 0 7" fill="#22c55e"/>
    </marker>
    <marker id="arr-o" markerWidth="10" markerHeight="7" refX="10" refY="3.5" orient="auto">
      <polygon points="0 0, 10 3.5, 0 7" fill="#f97316"/>
    </marker>
    <marker id="arr-b" markerWidth="10" markerHeight="7" refX="10" refY="3.5" orient="auto">
      <polygon points="0 0, 10 3.5, 0 7" fill="#3b82f6"/>
    </marker>
  </defs>

  <rect width="700" height="320" fill="#fafafa" rx="8"/>
  <text x="350" y="28" text-anchor="middle" font-size="16" font-weight="bold" fill="#1e293b">Review Loop — Three Outcomes</text>

  <!-- PR/MR Box -->
  <rect x="40" y="70" width="130" height="55" rx="8" fill="#dbeafe" stroke="#3b82f6" stroke-width="2"/>
  <text x="105" y="95" text-anchor="middle" font-weight="700" fill="#1e40af">PR / MR</text>
  <text x="105" y="113" text-anchor="middle" font-size="10" fill="#3b82f6">awaiting review</text>

  <!-- Arrow to reviewer -->
  <line x1="170" y1="97" x2="228" y2="97" stroke="#555" stroke-width="1.5" marker-end="url(#arr)"/>

  <!-- Human Reviewer -->
  <rect x="233" y="70" width="130" height="55" rx="8" fill="#fef2f2" stroke="#ef4444" stroke-width="1.5"/>
  <text x="298" y="95" text-anchor="middle" font-weight="600" fill="#991b1b">Human</text>
  <text x="298" y="113" text-anchor="middle" font-size="10" fill="#b91c1c">reviews the diff</text>

  <!-- Three paths -->

  <!-- Path A: Approve -->
  <line x1="363" y1="82" x2="430" y2="82" stroke="#22c55e" stroke-width="2" marker-end="url(#arr-g)"/>
  <rect x="435" y="60" width="110" height="45" rx="8" fill="#22c55e"/>
  <text x="490" y="80" text-anchor="middle" fill="white" font-weight="700">Approve</text>
  <text x="490" y="95" text-anchor="middle" fill="white" font-size="10">merge + close</text>

  <line x1="545" y1="82" x2="595" y2="82" stroke="#22c55e" stroke-width="2" marker-end="url(#arr-g)"/>
  <rect x="600" y="65" width="70" height="35" rx="6" fill="#166534"/>
  <text x="635" y="88" text-anchor="middle" fill="white" font-weight="600">Done</text>

  <!-- Path B: Edit -->
  <line x1="363" y1="97" x2="430" y2="150" stroke="#3b82f6" stroke-width="2" marker-end="url(#arr-b)"/>
  <rect x="435" y="130" width="110" height="45" rx="8" fill="#3b82f6"/>
  <text x="490" y="150" text-anchor="middle" fill="white" font-weight="700">Push Edit</text>
  <text x="490" y="165" text-anchor="middle" fill="white" font-size="10">human commits</text>

  <line x1="545" y1="152" x2="595" y2="152" stroke="#3b82f6" stroke-width="1.5" marker-end="url(#arr-b)"/>
  <rect x="600" y="135" width="70" height="35" rx="6" fill="#dbeafe" stroke="#3b82f6" stroke-width="1"/>
  <text x="635" y="157" text-anchor="middle" fill="#1e40af" font-size="11">Wait</text>

  <!-- Path C: Feedback -->
  <line x1="363" y1="112" x2="430" y2="222" stroke="#f97316" stroke-width="2" marker-end="url(#arr-o)"/>
  <rect x="435" y="200" width="110" height="45" rx="8" fill="#f97316"/>
  <text x="490" y="220" text-anchor="middle" fill="white" font-weight="700">Comment</text>
  <text x="490" y="235" text-anchor="middle" fill="white" font-size="10">feedback</text>

  <!-- Feedback flow -->
  <line x1="490" y1="245" x2="490" y2="268" stroke="#f97316" stroke-width="1.5" marker-end="url(#arr-o)"/>
  <rect x="420" y="270" width="140" height="35" rx="6" fill="#fed7aa" stroke="#f97316" stroke-width="1"/>
  <text x="490" y="293" text-anchor="middle" fill="#9a3412" font-weight="600" font-size="12">Feedback Parser</text>

  <line x1="420" y1="287" x2="340" y2="287" stroke="#f97316" stroke-width="1.5" marker-end="url(#arr-o)"/>
  <rect x="200" y="270" width="140" height="35" rx="6" fill="#dcfce7" stroke="#22c55e" stroke-width="1"/>
  <text x="270" y="293" text-anchor="middle" fill="#166534" font-weight="600" font-size="12">Developer Rework</text>

  <!-- Loop arrow back to PR -->
  <path d="M 200 287 L 105 287 L 105 127" fill="none" stroke="#f97316" stroke-width="1.5" marker-end="url(#arr-o)" stroke-dasharray="5,3"/>
  <text x="85" y="210" text-anchor="middle" fill="#f97316" font-size="10" font-weight="600" transform="rotate(-90, 85, 210)">updates PR</text>

  <!-- Rework limit note -->
  <rect x="40" y="270" width="140" height="35" rx="6" fill="#fff7ed" stroke="#fdba74" stroke-width="1"/>
  <text x="110" y="286" text-anchor="middle" fill="#b45309" font-size="10" font-weight="600">Max 3 reworks</text>
  <text x="110" y="299" text-anchor="middle" fill="#b45309" font-size="10">then escalate</text>
</svg>
