<svg xmlns="http://www.w3.org/2000/svg" viewBox="0 0 780 420" font-family="system-ui, -apple-system, sans-serif" font-size="13">
  <defs>
    <marker id="arr" markerWidth="10" markerHeight="7" refX="10" refY="3.5" orient="auto">
      <polygon points="0 0, 10 3.5, 0 7" fill="#555"/>
    </marker>
    <marker id="arr-g" markerWidth="10" markerHeight="7" refX="10" refY="3.5" orient="auto">
      <polygon points="0 0, 10 3.5, 0 7" fill="#22c55e"/>
    </marker>
    <marker id="arr-o" markerWidth="10" markerHeight="7" refX="10" refY="3.5" orient="auto">
      <polygon points="0 0, 10 3.5, 0 7" fill="#f97316"/>
    </marker>
    <marker id="arr-b" markerWidth="10" markerHeight="7" refX="10" refY="3.5" orient="auto">
      <polygon points="0 0, 10 3.5, 0 7" fill="#3b82f6"/>
    </marker>
    <marker id="arr-r" markerWidth="10" markerHeight="7" refX="10" refY="3.5" orient="auto">
      <polygon points="0 0, 10 3.5, 0 7" fill="#ef4444"/>
    </marker>
  </defs>

  <rect width="780" height="420" fill="#fafafa" rx="8"/>
  <text x="390" y="28" text-anchor="middle" font-size="16" font-weight="bold" fill="#1e293b">Review Loop — Three Outcomes</text>

  <!-- PR/MR Box -->
  <rect x="40" y="70" width="140" height="55" rx="8" fill="#dbeafe" stroke="#3b82f6" stroke-width="2"/>
  <text x="110" y="93" text-anchor="middle" font-weight="700" fill="#1e40af">PR / MR</text>
  <text x="110" y="113" text-anchor="middle" font-size="10" fill="#3b82f6">awaiting-review</text>

  <!-- Arrow to reviewer -->
  <line x1="180" y1="97" x2="238" y2="97" stroke="#555" stroke-width="1.5" marker-end="url(#arr)"/>

  <!-- Human Reviewer -->
  <rect x="243" y="70" width="130" height="55" rx="8" fill="#fef2f2" stroke="#ef4444" stroke-width="1.5"/>
  <text x="308" y="93" text-anchor="middle" font-weight="600" fill="#991b1b">Human</text>
  <text x="308" y="113" text-anchor="middle" font-size="10" fill="#b91c1c">reviews the diff</text>

  <!-- ═══ Path A: Approve ═══ -->
  <line x1="373" y1="82" x2="440" y2="82" stroke="#22c55e" stroke-width="2" marker-end="url(#arr-g)"/>
  <rect x="445" y="60" width="110" height="45" rx="8" fill="#22c55e"/>
  <text x="500" y="80" text-anchor="middle" fill="white" font-weight="700">Approve</text>
  <text x="500" y="95" text-anchor="middle" fill="white" font-size="10">merge + close</text>

  <!-- Approve actions -->
  <line x1="555" y1="82" x2="605" y2="82" stroke="#22c55e" stroke-width="2" marker-end="url(#arr-g)"/>
  <rect x="610" y="55" width="150" height="55" rx="6" fill="#f0fdf4" stroke="#22c55e" stroke-width="1"/>
  <text x="685" y="73" text-anchor="middle" fill="#166534" font-weight="600" font-size="11">Ticket → Done</text>
  <text x="685" y="88" text-anchor="middle" fill="#15803d" font-size="10">Slack notification</text>
  <text x="685" y="102" text-anchor="middle" fill="#15803d" font-size="9" font-style="italic">state: merged</text>

  <!-- ═══ Path B: Push Edit ═══ -->
  <line x1="373" y1="97" x2="440" y2="155" stroke="#3b82f6" stroke-width="2" marker-end="url(#arr-b)"/>
  <rect x="445" y="133" width="110" height="45" rx="8" fill="#3b82f6"/>
  <text x="500" y="153" text-anchor="middle" fill="white" font-weight="700">Push Edit</text>
  <text x="500" y="168" text-anchor="middle" fill="white" font-size="10">human commits</text>

  <line x1="555" y1="155" x2="605" y2="155" stroke="#3b82f6" stroke-width="1.5" marker-end="url(#arr-b)"/>
  <rect x="610" y="138" width="150" height="35" rx="6" fill="#dbeafe" stroke="#3b82f6" stroke-width="1"/>
  <text x="685" y="160" text-anchor="middle" fill="#1e40af" font-size="11">Wait for approval</text>

  <!-- ═══ Path C: Feedback / Rework ═══ -->
  <line x1="373" y1="112" x2="440" y2="230" stroke="#f97316" stroke-width="2" marker-end="url(#arr-o)"/>
  <rect x="445" y="210" width="110" height="45" rx="8" fill="#f97316"/>
  <text x="500" y="230" text-anchor="middle" fill="white" font-weight="700">Comment</text>
  <text x="500" y="245" text-anchor="middle" fill="white" font-size="10">review feedback</text>

  <!-- Rework pipeline (driven by Python server) -->
  <rect x="380" y="280" width="340" height="100" rx="8" fill="#fff7ed" stroke="#fdba74" stroke-width="1.5" stroke-dasharray="4,2"/>
  <text x="550" y="298" text-anchor="middle" font-size="10" font-weight="600" fill="#b45309">Rework Pipeline (Python server drives)</text>

  <!-- Step 1: Jira → Development -->
  <rect x="395" y="310" width="95" height="30" rx="4" fill="#2563eb" opacity="0.15"/>
  <text x="442" y="329" text-anchor="middle" font-size="9" fill="#2563eb">Ticket → Dev</text>

  <!-- Step 2: Feedback Parser -->
  <rect x="500" y="310" width="95" height="30" rx="4" fill="#fed7aa" stroke="#f97316" stroke-width="1"/>
  <text x="547" y="329" text-anchor="middle" fill="#9a3412" font-weight="600" font-size="9">Feedback Parser</text>

  <!-- Step 3: Developer Rework -->
  <rect x="605" y="310" width="100" height="30" rx="4" fill="#dcfce7" stroke="#22c55e" stroke-width="1"/>
  <text x="655" y="329" text-anchor="middle" fill="#166534" font-weight="600" font-size="9">Dev Rework</text>

  <!-- Arrows between rework steps -->
  <line x1="490" y1="325" x2="498" y2="325" stroke="#f97316" stroke-width="1" marker-end="url(#arr-o)"/>
  <line x1="595" y1="325" x2="603" y2="325" stroke="#f97316" stroke-width="1" marker-end="url(#arr-o)"/>

  <!-- Arrow from comment to rework pipeline -->
  <line x1="500" y1="255" x2="550" y2="278" stroke="#f97316" stroke-width="1.5" marker-end="url(#arr-o)"/>

  <!-- State label -->
  <text x="550" y="365" text-anchor="middle" font-size="9" fill="#9a3412" font-style="italic">state: reworking → awaiting-review</text>

  <!-- Loop arrow back to PR -->
  <path d="M 395 340 L 110 340 L 110 127" fill="none" stroke="#f97316" stroke-width="1.5" marker-end="url(#arr-o)" stroke-dasharray="5,3"/>
  <text x="88" y="240" text-anchor="middle" fill="#f97316" font-size="9" font-weight="600" transform="rotate(-90, 88, 240)">updates PR + Ticket → Done</text>

  <!-- Rework limit note -->
  <rect x="40" y="285" width="140" height="45" rx="6" fill="#fff7ed" stroke="#fdba74" stroke-width="1"/>
  <text x="110" y="303" text-anchor="middle" fill="#b45309" font-size="10" font-weight="600">Max reworks</text>
  <text x="110" y="317" text-anchor="middle" fill="#b45309" font-size="9">configurable (default 3)</text>
  <text x="110" y="328" text-anchor="middle" fill="#b45309" font-size="9">then → escalate</text>

  <!-- Failed state from rework -->
  <rect x="40" y="350" width="140" height="35" rx="6" fill="#fee2e2" stroke="#ef4444" stroke-width="1.5"/>
  <text x="110" y="372" text-anchor="middle" fill="#991b1b" font-weight="600" font-size="11">Failed → error logged</text>

  <path d="M 395 350 L 182 375" fill="none" stroke="#ef4444" stroke-width="1" stroke-dasharray="4,3" marker-end="url(#arr-r)"/>

  <!-- Issue comment indicators -->
  <rect x="610" y="310" width="6" height="30" rx="2" fill="#2563eb" opacity="0.3"/>
  <text x="550" y="394" text-anchor="middle" font-size="9" fill="#6b7280" font-style="italic">Issue comments posted at each step (via adapter)</text>
</svg>
